TITLE ""
FILE "Step4_Track39.mp3" MP3
  TRACK 01 AUDIO
    TITLE "Step4_Track39_01"
    INDEX 01 00:00:00
  TRACK 02 AUDIO
    TITLE "Step4_Track39_02"
    INDEX 01 00:00:24
  TRACK 03 AUDIO
    TITLE "Step4_Track39_03"
    INDEX 01 00:01:70
  TRACK 04 AUDIO
    TITLE "Step4_Track39_04"
    INDEX 01 00:02:56
  TRACK 05 AUDIO
    TITLE "Step4_Track39_05"
    INDEX 01 00:03:48
  TRACK 06 AUDIO
    TITLE "Step4_Track39_06"
    INDEX 01 00:03:63
  TRACK 07 AUDIO
    TITLE "Step4_Track39_07"
    INDEX 01 00:06:46
  TRACK 08 AUDIO
    TITLE "Step4_Track39_08"
    INDEX 01 00:06:74
  TRACK 09 AUDIO
    TITLE "Step4_Track39_09"
    INDEX 01 00:07:73
  TRACK 10 AUDIO
    TITLE "Step4_Track39_10"
    INDEX 01 00:08:08
  TRACK 11 AUDIO
    TITLE "Step4_Track39_11"
    INDEX 01 00:11:18
  TRACK 12 AUDIO
    TITLE "Step4_Track39_12"
    INDEX 01 00:11:41
  TRACK 13 AUDIO
    TITLE "Step4_Track39_13"
    INDEX 01 00:12:37
  TRACK 14 AUDIO
    TITLE "Step4_Track39_14"
    INDEX 01 00:12:57
  TRACK 15 AUDIO
    TITLE "Step4_Track39_15"
    INDEX 01 00:14:52
  TRACK 16 AUDIO
    TITLE "Step4_Track39_16"
    INDEX 01 00:15:18
  TRACK 17 AUDIO
    TITLE "Step4_Track39_17"
    INDEX 01 00:16:15
  TRACK 18 AUDIO
    TITLE "Step4_Track39_18"
    INDEX 01 00:16:27
  TRACK 19 AUDIO
    TITLE "Step4_Track39_19"
    INDEX 01 00:19:08
  TRACK 20 AUDIO
    TITLE "Step4_Track39_20"
    INDEX 01 00:19:51
  TRACK 21 AUDIO
    TITLE "Step4_Track39_21"
    INDEX 01 00:20:44
  TRACK 22 AUDIO
    TITLE "Step4_Track39_22"
    INDEX 01 00:20:58
  TRACK 23 AUDIO
    TITLE "Step4_Track39_23"
    INDEX 01 00:22:65
  TRACK 24 AUDIO
    TITLE "Step4_Track39_24"
    INDEX 01 00:23:19
  TRACK 25 AUDIO
    TITLE "Step4_Track39_25"
    INDEX 01 00:24:21
  TRACK 26 AUDIO
    TITLE "Step4_Track39_26"
    INDEX 01 00:24:26
  TRACK 27 AUDIO
    TITLE "Step4_Track39_27"
    INDEX 01 00:26:66
  TRACK 28 AUDIO
    TITLE "Step4_Track39_28"
    INDEX 01 00:27:15
  TRACK 29 AUDIO
    TITLE "Step4_Track39_29"
    INDEX 01 00:28:13
  TRACK 30 AUDIO
    TITLE "Step4_Track39_30"
    INDEX 01 00:28:22
  TRACK 31 AUDIO
    TITLE "Step4_Track39_31"
    INDEX 01 00:30:47
  TRACK 32 AUDIO
    TITLE "Step4_Track39_32"
    INDEX 01 00:30:72
  TRACK 33 AUDIO
    TITLE "Step4_Track39_33"
    INDEX 01 00:31:66
  TRACK 34 AUDIO
    TITLE "Step4_Track39_34"
    INDEX 01 00:31:72
  TRACK 35 AUDIO
    TITLE "Step4_Track39_35"
    INDEX 01 00:33:70
  TRACK 36 AUDIO
    TITLE "Step4_Track39_36"
    INDEX 01 00:34:39
  TRACK 37 AUDIO
    TITLE "Step4_Track39_37"
    INDEX 01 00:35:34
  TRACK 38 AUDIO
    TITLE "Step4_Track39_38"
    INDEX 01 00:35:50
  TRACK 39 AUDIO
    TITLE "Step4_Track39_39"
    INDEX 01 00:40:06
  TRACK 40 AUDIO
    TITLE "Step4_Track39_40"
    INDEX 01 00:40:31
  TRACK 41 AUDIO
    TITLE "Step4_Track39_41"
    INDEX 01 00:41:25
  TRACK 42 AUDIO
    TITLE "Step4_Track39_42"
    INDEX 01 00:41:50
  TRACK 43 AUDIO
    TITLE "Step4_Track39_43"
    INDEX 01 00:45:34
